<svg width="16" height="16" viewBox="0 0 16 16" fill="none" xmlns="http://www.w3.org/2000/svg">
<path d="M8 4.00012C7.50555 4.00012 7.0222 4.14674 6.61107 4.42145C6.19995 4.69615 5.87952 5.0866 5.6903 5.54341C5.50108 6.00023 5.45157 6.5029 5.54804 6.98785C5.6445 7.4728 5.8826 7.91826 6.23223 8.26789C6.58186 8.61752 7.02732 8.85562 7.51227 8.95209C7.99723 9.04855 8.49989 8.99904 8.95671 8.80982C9.41352 8.6206 9.80397 8.30017 10.0787 7.88905C10.3534 7.47792 10.5 6.99458 10.5 6.50012C10.5 5.83708 10.2366 5.2012 9.76777 4.73236C9.29893 4.26351 8.66304 4.00012 8 4.00012ZM8 8.00012C7.70333 8.00012 7.41332 7.91215 7.16664 7.74733C6.91997 7.5825 6.72771 7.34824 6.61418 7.07415C6.50065 6.80006 6.47094 6.49846 6.52882 6.20749C6.5867 5.91652 6.72956 5.64924 6.93934 5.43946C7.14912 5.22968 7.41639 5.08682 7.70736 5.02894C7.99834 4.97107 8.29994 5.00077 8.57403 5.1143C8.84811 5.22783 9.08238 5.42009 9.2472 5.66677C9.41203 5.91344 9.5 6.20345 9.5 6.50012C9.5 6.89795 9.34196 7.27948 9.06066 7.56078C8.77936 7.84209 8.39782 8.00012 8 8.00012ZM8 1.00012C6.54182 1.00178 5.14383 1.58177 4.11274 2.61286C3.08165 3.64395 2.50165 5.04194 2.5 6.50012C2.5 8.46262 3.40688 10.5426 5.125 12.5157C5.89701 13.4073 6.76591 14.2102 7.71562 14.9095C7.7997 14.9684 7.89985 15 8.0025 15C8.10515 15 8.20531 14.9684 8.28938 14.9095C9.23734 14.2099 10.1046 13.4071 10.875 12.5157C12.5906 10.5426 13.5 8.46262 13.5 6.50012C13.4983 5.04194 12.9184 3.64395 11.8873 2.61286C10.8562 1.58177 9.45818 1.00178 8 1.00012ZM8 13.8751C6.96688 13.0626 3.5 10.0782 3.5 6.50012C3.5 5.30665 3.97411 4.16206 4.81802 3.31814C5.66193 2.47423 6.80653 2.00012 8 2.00012C9.19347 2.00012 10.3381 2.47423 11.182 3.31814C12.0259 4.16206 12.5 5.30665 12.5 6.50012C12.5 10.077 9.03312 13.0626 8 13.8751Z" fill="white"/>
</svg>
