<svg width="55" height="55" viewBox="0 0 55 55" fill="none" xmlns="http://www.w3.org/2000/svg">
<g clip-path="url(#clip0_2_60)">
<path d="M51.4515 21.2392C51.453 20.7575 51.3618 20.2803 51.1832 19.8353C51.0047 19.3904 50.7423 18.9865 50.4114 18.6473L35.1799 2.90584C34.8504 2.56527 34.4592 2.29511 34.0286 2.11079C33.5981 1.92647 33.1366 1.8316 32.6705 1.8316C32.2045 1.8316 31.743 1.92647 31.3124 2.11079C30.8819 2.29511 30.4907 2.56527 30.1612 2.90584L23.8561 9.42105L10.9932 14.41C10.4086 14.6353 9.89157 15.0153 9.49379 15.512C9.09602 16.0087 8.83149 16.6047 8.72669 17.2402L3.57266 49.1975C3.53013 49.4602 3.5435 49.7293 3.61185 49.9861C3.68019 50.2429 3.80187 50.4813 3.96841 50.6846C4.13496 50.8879 4.34236 51.0512 4.5762 51.1632C4.81004 51.2753 5.0647 51.3333 5.32246 51.3333C5.42053 51.3329 5.51841 51.3245 5.6152 51.3081L36.5394 45.9823C37.1537 45.8764 37.7302 45.6052 38.211 45.1961C38.6918 44.787 39.0599 44.2544 39.2783 43.6517L44.1063 30.36L50.4114 23.8333C50.7425 23.4937 51.0049 23.0895 51.1835 22.6442C51.362 22.1988 51.4531 21.7212 51.4515 21.2392ZM35.9561 42.3661L10.4942 46.75L20.9997 35.8944C22.3118 36.6272 23.8353 36.8474 25.2917 36.515C26.7481 36.1825 28.04 35.3194 28.9312 34.0836C29.8225 32.8479 30.2535 31.3219 30.1455 29.7847C30.0375 28.2476 29.3976 26.8019 28.343 25.7121C27.2884 24.6223 25.8893 23.9612 24.4018 23.8496C22.9142 23.738 21.4374 24.1833 20.2415 25.1043C19.0456 26.0252 18.2104 27.3602 17.8886 28.8651C17.5669 30.37 17.7801 31.9444 18.4892 33.3002L7.98375 44.1604L12.2263 17.8429L24.395 13.129L40.518 29.7917L35.9561 42.3661ZM21.2902 30.25C21.2902 29.7061 21.4463 29.1744 21.7387 28.7222C22.0311 28.27 22.4468 27.9175 22.9331 27.7093C23.4193 27.5012 23.9544 27.4467 24.4707 27.5528C24.9869 27.659 25.4611 27.9209 25.8333 28.3055C26.2055 28.6901 26.459 29.1801 26.5616 29.7135C26.6643 30.247 26.6116 30.7999 26.4102 31.3024C26.2088 31.8049 25.8677 32.2344 25.43 32.5365C24.9924 32.8387 24.4778 33 23.9515 33C23.2457 33 22.5688 32.7103 22.0697 32.1946C21.5706 31.6788 21.2902 30.9794 21.2902 30.25ZM42.5805 26.7392L27.3468 11L32.6694 5.50001L47.9031 21.2392L42.5805 26.7392Z" fill="#F44336"/>
<path d="M1.77441 1.83331L53.226 53.1666" stroke="#F44336" stroke-width="4" stroke-linecap="round"/>
</g>
<defs>
<clipPath id="clip0_2_60">
<rect width="55" height="55" fill="white"/>
</clipPath>
</defs>
</svg>
