<svg width="55" height="55" viewBox="0 0 55 55" fill="none" xmlns="http://www.w3.org/2000/svg">
<path d="M13.7498 22.5586V8.59375C13.7498 8.13791 13.5687 7.70074 13.2464 7.37841C12.9241 7.05608 12.4869 6.875 12.0311 6.875C11.5752 6.875 11.138 7.05608 10.8157 7.37841C10.4934 7.70074 10.3123 8.13791 10.3123 8.59375V22.5586C8.83347 22.9372 7.52271 23.7973 6.58668 25.0032C5.65064 26.2091 5.14258 27.6922 5.14258 29.2188C5.14258 30.7453 5.65064 32.2284 6.58668 33.4343C7.52271 34.6402 8.83347 35.5003 10.3123 35.8789V46.4062C10.3123 46.8621 10.4934 47.2993 10.8157 47.6216C11.138 47.9439 11.5752 48.125 12.0311 48.125C12.4869 48.125 12.9241 47.9439 13.2464 47.6216C13.5687 47.2993 13.7498 46.8621 13.7498 46.4062V35.8789C15.2286 35.5003 16.5394 34.6402 17.4754 33.4343C18.4115 32.2284 18.9195 30.7453 18.9195 29.2188C18.9195 27.6922 18.4115 26.2091 17.4754 25.0032C16.5394 23.7973 15.2286 22.9372 13.7498 22.5586ZM12.0311 32.6562C11.3512 32.6562 10.6866 32.4546 10.1213 32.0769C9.55599 31.6992 9.1154 31.1623 8.85522 30.5342C8.59505 29.9061 8.52697 29.2149 8.65961 28.5481C8.79225 27.8813 9.11964 27.2688 9.60038 26.7881C10.0811 26.3073 10.6936 25.9799 11.3604 25.8473C12.0272 25.7147 12.7184 25.7827 13.3465 26.0429C13.9747 26.3031 14.5115 26.7437 14.8892 27.309C15.267 27.8743 15.4686 28.5389 15.4686 29.2188C15.4686 30.1304 15.1064 31.0048 14.4617 31.6494C13.8171 32.2941 12.9427 32.6562 12.0311 32.6562ZM29.2186 12.2461V8.59375C29.2186 8.13791 29.0375 7.70074 28.7151 7.37841C28.3928 7.05608 27.9556 6.875 27.4998 6.875C27.044 6.875 26.6068 7.05608 26.2845 7.37841C25.9621 7.70074 25.7811 8.13791 25.7811 8.59375V12.2461C24.3022 12.6247 22.9915 13.4848 22.0554 14.6907C21.1194 15.8966 20.6113 17.3797 20.6113 18.9062C20.6113 20.4328 21.1194 21.9159 22.0554 23.1218C22.9915 24.3277 24.3022 25.1878 25.7811 25.5664V46.4062C25.7811 46.8621 25.9621 47.2993 26.2845 47.6216C26.6068 47.9439 27.044 48.125 27.4998 48.125C27.9556 48.125 28.3928 47.9439 28.7151 47.6216C29.0375 47.2993 29.2186 46.8621 29.2186 46.4062V25.5664C30.6974 25.1878 32.0082 24.3277 32.9442 23.1218C33.8802 21.9159 34.3883 20.4328 34.3883 18.9062C34.3883 17.3797 33.8802 15.8966 32.9442 14.6907C32.0082 13.4848 30.6974 12.6247 29.2186 12.2461ZM27.4998 22.3438C26.8199 22.3438 26.1553 22.1421 25.59 21.7644C25.0247 21.3867 24.5841 20.8498 24.324 20.2217C24.0638 19.5936 23.9957 18.9024 24.1284 18.2356C24.261 17.5688 24.5884 16.9563 25.0691 16.4756C25.5499 15.9948 26.1624 15.6674 26.8292 15.5348C27.496 15.4022 28.1872 15.4702 28.8153 15.7304C29.4434 15.9906 29.9803 16.4312 30.358 16.9965C30.7357 17.5618 30.9373 18.2264 30.9373 18.9062C30.9373 19.8179 30.5751 20.6923 29.9305 21.3369C29.2858 21.9816 28.4115 22.3438 27.4998 22.3438ZM49.8436 36.0938C49.8421 34.5696 49.3352 33.0889 48.4021 31.8837C47.469 30.6785 46.1625 29.8168 44.6873 29.4336V8.59375C44.6873 8.13791 44.5062 7.70074 44.1839 7.37841C43.8616 7.05608 43.4244 6.875 42.9686 6.875C42.5127 6.875 42.0755 7.05608 41.7532 7.37841C41.4309 7.70074 41.2498 8.13791 41.2498 8.59375V29.4336C39.771 29.8122 38.4602 30.6723 37.5242 31.8782C36.5881 33.0841 36.0801 34.5672 36.0801 36.0938C36.0801 37.6203 36.5881 39.1034 37.5242 40.3093C38.4602 41.5152 39.771 42.3753 41.2498 42.7539V46.4062C41.2498 46.8621 41.4309 47.2993 41.7532 47.6216C42.0755 47.9439 42.5127 48.125 42.9686 48.125C43.4244 48.125 43.8616 47.9439 44.1839 47.6216C44.5062 47.2993 44.6873 46.8621 44.6873 46.4062V42.7539C46.1625 42.3707 47.469 41.509 48.4021 40.3038C49.3352 39.0986 49.8421 37.6179 49.8436 36.0938ZM42.9686 39.5312C42.2887 39.5312 41.6241 39.3296 41.0588 38.9519C40.4935 38.5742 40.0529 38.0373 39.7927 37.4092C39.5325 36.7811 39.4645 36.0899 39.5971 35.4231C39.7297 34.7563 40.0571 34.1438 40.5379 33.6631C41.0186 33.1823 41.6311 32.8549 42.2979 32.7223C42.9647 32.5897 43.6559 32.6577 44.284 32.9179C44.9122 33.1781 45.449 33.6187 45.8267 34.184C46.2045 34.7493 46.4061 35.4139 46.4061 36.0938C46.4061 37.0054 46.0439 37.8798 45.3992 38.5244C44.7546 39.1691 43.8802 39.5312 42.9686 39.5312Z" fill="#F44336"/>
</svg>
