<svg width="55" height="55" viewBox="0 0 55 55" fill="none" xmlns="http://www.w3.org/2000/svg">
<path d="M25.1905 33.9281C27.494 32.3945 29.2429 30.1604 30.1785 27.556C31.1141 24.9515 31.1867 22.1152 30.3856 19.4663C29.5845 16.8175 27.9523 14.4967 25.7302 12.8473C23.5081 11.1978 20.8143 10.3073 18.0469 10.3073C15.2796 10.3073 12.5857 11.1978 10.3636 12.8473C8.14154 14.4967 6.50928 16.8175 5.70819 19.4663C4.90711 22.1152 4.97973 24.9515 5.91532 27.556C6.85091 30.1604 8.59979 32.3945 10.9034 33.9281C6.73644 35.4639 3.1778 38.3058 0.758429 42.0299C0.631275 42.2189 0.542954 42.4312 0.498599 42.6546C0.454245 42.8781 0.454741 43.1081 0.50006 43.3313C0.545379 43.5545 0.634617 43.7665 0.762585 43.9549C0.890554 44.1434 1.0547 44.3045 1.24548 44.4289C1.43627 44.5534 1.64988 44.6386 1.87391 44.6798C2.09795 44.7209 2.32792 44.7172 2.55047 44.6687C2.77303 44.6201 2.98372 44.5279 3.1703 44.3972C3.35689 44.2666 3.51564 44.1001 3.63734 43.9076C5.19794 41.5073 7.33341 39.5349 9.84984 38.1695C12.3663 36.8041 15.1839 36.0889 18.0469 36.0889C20.9099 36.0889 23.7276 36.8041 26.244 38.1695C28.7604 39.5349 30.8959 41.5073 32.4565 43.9076C32.7086 44.2823 33.098 44.5427 33.5405 44.6325C33.9831 44.7224 34.4432 44.6344 34.8215 44.3877C35.1997 44.141 35.4657 43.7554 35.5618 43.3142C35.658 42.8729 35.5766 42.4116 35.3354 42.0299C32.916 38.3058 29.3574 35.4639 25.1905 33.9281ZM8.59378 23.2031C8.59378 21.3335 9.1482 19.5058 10.1869 17.9512C11.2256 16.3967 12.702 15.185 14.4294 14.4696C16.1567 13.7541 18.0574 13.5669 19.8911 13.9316C21.7248 14.2964 23.4092 15.1967 24.7313 16.5187C26.0533 17.8408 26.9536 19.5252 27.3184 21.3589C27.6831 23.1926 27.4959 25.0933 26.7805 26.8207C26.065 28.548 24.8533 30.0244 23.2988 31.0631C21.7442 32.1018 19.9166 32.6562 18.0469 32.6562C15.5407 32.6534 13.1379 31.6565 11.3657 29.8843C9.59349 28.1121 8.59662 25.7094 8.59378 23.2031ZM53.741 44.4082C53.3593 44.6571 52.8942 44.7443 52.4482 44.6504C52.0022 44.5565 51.6118 44.2893 51.3627 43.9076C49.804 41.5059 47.6688 39.5326 45.1519 38.1678C42.6349 36.8029 39.8163 36.0899 36.9532 36.0937C36.4973 36.0937 36.0601 35.9127 35.7378 35.5903C35.4155 35.268 35.2344 34.8308 35.2344 34.375C35.2344 33.9191 35.4155 33.482 35.7378 33.1596C36.0601 32.8373 36.4973 32.6562 36.9532 32.6562C38.3453 32.6549 39.7199 32.3461 40.9789 31.752C42.2378 31.1578 43.35 30.2929 44.236 29.2191C45.1219 28.1453 45.7598 26.889 46.1039 25.5401C46.4481 24.1912 46.4901 22.7829 46.2269 21.4159C45.9637 20.0489 45.4018 18.7569 44.5814 17.6322C43.761 16.5075 42.7023 15.5779 41.481 14.9098C40.2597 14.2417 38.9059 13.8516 37.5163 13.7673C36.1267 13.6831 34.7357 13.9068 33.4426 14.4224C33.2318 14.5136 33.0048 14.5615 32.7751 14.5635C32.5454 14.5654 32.3177 14.5213 32.1054 14.4337C31.893 14.3462 31.7004 14.2169 31.5388 14.0537C31.3773 13.8904 31.2501 13.6964 31.1648 13.4831C31.0795 13.2699 31.0378 13.0417 31.0422 12.812C31.0465 12.5824 31.0969 12.3559 31.1903 12.1461C31.2837 11.9362 31.4182 11.7472 31.5858 11.5902C31.7535 11.4332 31.9509 11.3114 32.1664 11.232C35.1258 10.0518 38.4175 10.0093 41.4063 11.1128C44.3952 12.2163 46.8695 14.3875 48.3519 17.2077C49.8343 20.0279 50.2198 23.2971 49.4341 26.3848C48.6483 29.4724 46.7469 32.1597 44.0967 33.9281C48.2636 35.4639 51.8223 38.3058 54.2416 42.0299C54.4906 42.4116 54.5777 42.8767 54.4838 43.3227C54.39 43.7687 54.1228 44.1591 53.741 44.4082Z" fill="#F44336"/>
</svg>
