<svg xmlns="http://www.w3.org/2000/svg" width="55" height="55" fill="none"><path fill="#F44336" d="M25.19 33.928a12.89 12.89 0 1 0-14.287 0A20.588 20.588 0 0 0 .758 42.03a1.719 1.719 0 1 0 2.88 1.878 17.187 17.187 0 0 1 28.818 0 1.718 1.718 0 0 0 2.88-1.878 20.588 20.588 0 0 0-10.145-8.102ZM8.595 23.203a9.454 9.454 0 1 1 9.453 9.453 9.464 9.464 0 0 1-9.453-9.453ZM53.74 44.408a1.719 1.719 0 0 1-2.378-.5 17.15 17.15 0 0 0-14.41-7.814 1.718 1.718 0 1 1 0-3.438 9.454 9.454 0 1 0-3.51-18.234 1.719 1.719 0 1 1-1.277-3.19 12.89 12.89 0 0 1 11.93 22.696 20.588 20.588 0 0 1 10.146 8.102 1.718 1.718 0 0 1-.501 2.378Z"/></svg>