<svg width="55" height="55" viewBox="0 0 55 55" fill="none" xmlns="http://www.w3.org/2000/svg">
<path d="M47.6673 17.8664C50.0524 22.8547 50.5052 28.5496 48.9383 33.852C47.3714 39.1544 43.8959 43.6885 39.1826 46.5792C34.4693 49.4698 28.8523 50.5122 23.4157 49.5049C17.9791 48.4977 13.1083 45.5124 9.74339 41.1251C6.37844 36.7379 4.7579 31.2596 5.19451 25.7478C5.63113 20.236 8.09396 15.0812 12.1077 11.2784C16.1214 7.47566 21.4015 5.29443 26.9288 5.15573C32.4562 5.01702 37.839 6.93067 42.0384 10.5273L46.9089 5.65469C47.2315 5.33218 47.6689 5.151 48.125 5.151C48.5811 5.151 49.0185 5.33218 49.341 5.65469C49.6635 5.9772 49.8447 6.41461 49.8447 6.8707C49.8447 7.3268 49.6635 7.76421 49.341 8.08672L28.716 28.7117C28.3935 29.0342 27.9561 29.2154 27.5 29.2154C27.0439 29.2154 26.6065 29.0342 26.2839 28.7117C25.9614 28.3892 25.7803 27.9518 25.7803 27.4957C25.7803 27.0396 25.9614 26.6022 26.2839 26.2797L32.2394 20.3242C30.6254 19.2568 28.6984 18.7653 26.7703 18.9293C24.8422 19.0934 23.0259 19.9033 21.6154 21.2281C20.2049 22.5529 19.2829 24.3149 18.9984 26.2289C18.714 28.143 19.0838 30.097 20.0481 31.7747C21.0124 33.4523 22.5147 34.7555 24.3118 35.4731C26.1089 36.1907 28.0955 36.2808 29.9502 35.7289C31.8049 35.1769 33.419 34.0151 34.5312 32.4316C35.6434 30.8481 36.1887 28.9356 36.0787 27.0037C36.066 26.778 36.0979 26.552 36.1725 26.3386C36.2472 26.1252 36.3631 25.9286 36.5137 25.7601C36.6643 25.5915 36.8467 25.4542 37.0504 25.3561C37.254 25.258 37.475 25.201 37.7007 25.1883C38.1566 25.1626 38.6039 25.3191 38.9444 25.6233C39.113 25.774 39.2502 25.9563 39.3483 26.16C39.4465 26.3636 39.5035 26.5846 39.5162 26.8104C39.6729 29.5448 38.8918 32.2509 37.3022 34.4814C35.7125 36.7119 33.4094 38.3332 30.7735 39.0773C28.1375 39.8215 25.3266 39.644 22.8052 38.5741C20.2838 37.5043 18.2029 35.6061 16.9065 33.1934C15.61 30.7807 15.1756 27.9978 15.6751 25.3048C16.1745 22.6117 17.5779 20.1697 19.6533 18.3823C21.7287 16.5949 24.3518 15.5692 27.0892 15.4746C29.8265 15.38 32.5142 16.2222 34.708 17.8621L39.5957 12.9744C36.0138 10.0005 31.4595 8.45488 26.8074 8.6343C22.1554 8.81373 17.7336 10.7056 14.3915 13.9465C11.0493 17.1874 9.02234 21.5489 8.69994 26.1932C8.37754 30.8376 9.7824 35.4373 12.6447 39.1089C15.507 42.7805 19.625 45.2652 24.2076 46.0857C28.7902 46.9062 33.5144 46.0046 37.4729 43.5542C41.4313 41.1037 44.3448 37.2772 45.6538 32.8095C46.9629 28.3418 46.5751 23.548 44.565 19.3488C44.3684 18.9374 44.3433 18.4648 44.4952 18.0349C44.6471 17.605 44.9636 17.253 45.375 17.0564C45.7864 16.8599 46.259 16.8348 46.6889 16.9867C47.1188 17.1386 47.4708 17.455 47.6673 17.8664Z" fill="#F44336"/>
</svg>
