<svg width="55" height="55" viewBox="0 0 55 55" fill="none" xmlns="http://www.w3.org/2000/svg">
<path d="M42.9688 43.9355V49.8438C42.9688 50.2996 42.7878 50.7368 42.4654 51.0591C42.1431 51.3814 41.7059 51.5625 41.2501 51.5625C40.7943 51.5625 40.3571 51.3814 40.0348 51.0591C39.7124 50.7368 39.5313 50.2996 39.5313 49.8438V43.9355C39.5398 41.38 38.8322 38.8732 37.4887 36.6993C36.1452 34.5253 34.2196 32.7712 31.9302 31.6357L21.5317 26.4387C18.6701 25.0194 16.2633 22.8268 14.5841 20.1094C12.905 17.3921 12.0206 14.2587 12.0313 11.0645V5.15625C12.0313 4.70041 12.2124 4.26324 12.5348 3.94091C12.8571 3.61858 13.2943 3.4375 13.7501 3.4375C14.2059 3.4375 14.6431 3.61858 14.9654 3.94091C15.2878 4.26324 15.4688 4.70041 15.4688 5.15625V11.0645C15.4604 13.62 16.168 16.1268 17.5115 18.3007C18.855 20.4747 20.7806 22.2288 23.07 23.3643L33.4685 28.5613C36.3301 29.9806 38.7369 32.1732 40.4161 34.8906C42.0952 37.6079 42.9796 40.7413 42.9688 43.9355ZM34.3751 42.9688H15.5054C15.5881 41.7979 15.8213 40.6425 16.1993 39.5312H31.8206C32.2764 39.5312 32.7136 39.3502 33.0359 39.0278C33.3583 38.7055 33.5394 38.2683 33.5394 37.8125C33.5394 37.3567 33.3583 36.9195 33.0359 36.5972C32.7136 36.2748 32.2764 36.0938 31.8206 36.0938H17.931C18.7934 34.8469 19.8571 33.7521 21.0784 32.8539C21.2607 32.7203 21.4148 32.5521 21.5321 32.359C21.6494 32.1658 21.7274 31.9514 21.7618 31.7281C21.7963 31.5047 21.7863 31.2768 21.7327 31.0573C21.679 30.8378 21.5826 30.631 21.449 30.4487C21.3154 30.2665 21.1472 30.1123 20.9541 29.995C20.7609 29.8778 20.5465 29.7997 20.3232 29.7653C20.0998 29.7309 19.8719 29.7408 19.6524 29.7945C19.4329 29.8481 19.2261 29.9445 19.0438 30.0781C16.8727 31.6786 15.1073 33.7661 13.8894 36.1728C12.6715 38.5794 12.0351 41.2383 12.0313 43.9355V49.8438C12.0313 50.2996 12.2124 50.7368 12.5348 51.0591C12.8571 51.3814 13.2943 51.5625 13.7501 51.5625C14.2059 51.5625 14.6431 51.3814 14.9654 51.0591C15.2878 50.7368 15.4688 50.2996 15.4688 49.8438V46.4062H34.3751C34.8309 46.4062 35.2681 46.2252 35.5904 45.9028C35.9128 45.5805 36.0938 45.1433 36.0938 44.6875C36.0938 44.2317 35.9128 43.7945 35.5904 43.4722C35.2681 43.1498 34.8309 42.9688 34.3751 42.9688ZM41.2501 3.4375C40.7943 3.4375 40.3571 3.61858 40.0348 3.94091C39.7124 4.26324 39.5313 4.70041 39.5313 5.15625V8.59375H20.6251C20.1693 8.59375 19.7321 8.77483 19.4098 9.09716C19.0874 9.41949 18.9063 9.85666 18.9063 10.3125C18.9063 10.7683 19.0874 11.2055 19.4098 11.5278C19.7321 11.8502 20.1693 12.0312 20.6251 12.0312H39.4948C39.4121 13.2021 39.1789 14.3575 38.8009 15.4688H23.1796C22.7237 15.4688 22.2866 15.6498 21.9642 15.9722C21.6419 16.2945 21.4608 16.7317 21.4608 17.1875C21.4608 17.6433 21.6419 18.0805 21.9642 18.4028C22.2866 18.7252 22.7237 18.9062 23.1796 18.9062H37.0692C36.2067 20.1531 35.1431 21.2479 33.9218 22.1461C33.7398 22.2797 33.5859 22.4478 33.4689 22.6409C33.3519 22.8339 33.2741 23.0482 33.2399 23.2713C33.2056 23.4944 33.2157 23.7221 33.2695 23.9414C33.3233 24.1606 33.4197 24.3671 33.5533 24.5491C33.8231 24.9166 34.2279 25.1619 34.6785 25.231C34.9017 25.2652 35.1294 25.2552 35.3486 25.2014C35.5679 25.1476 35.7744 25.0512 35.9563 24.9176C38.1269 23.3175 39.892 21.2307 41.1098 18.8249C42.3277 16.419 42.9644 13.761 42.9688 11.0645V5.15625C42.9688 4.70041 42.7878 4.26324 42.4654 3.94091C42.1431 3.61858 41.7059 3.4375 41.2501 3.4375Z" fill="#F44336"/>
</svg>
