<svg xmlns="http://www.w3.org/2000/svg" width="55" height="55" fill="none"><path fill="#F44336" d="M53.545 18.53a5.811 5.811 0 0 0-4.36-1.968H35.623v-3.875A9.687 9.687 0 0 0 25.936 3 1.937 1.937 0 0 0 24.2 4.07l-9.15 18.305H4.624A3.875 3.875 0 0 0 .748 26.25v21.313a3.875 3.875 0 0 0 3.875 3.874h41.656a5.812 5.812 0 0 0 5.77-5.085l2.906-23.25a5.813 5.813 0 0 0-1.41-4.573ZM4.623 26.25h9.688v21.313H4.622V26.25Zm46.486-3.633-2.907 23.25a1.937 1.937 0 0 1-1.923 1.696H18.185V24.77l8.891-17.784a5.813 5.813 0 0 1 4.672 5.702V18.5a1.938 1.938 0 0 0 1.937 1.938h15.5a1.937 1.937 0 0 1 1.923 2.18Z"/></svg>