<svg xmlns="http://www.w3.org/2000/svg" width="203" height="58" fill="none"><g clip-path="url(#a)"><path fill="#fff" d="M53.083.333h9.192v57h-9.192v-57ZM94.446 39.15c0 8.724-7.392 9.42-9.591 9.42-5.495 0-6.494-5.104-6.494-8.182V18.573h-9.192v21.77c0 5.403 1.71 9.863 4.706 12.836 2.647 2.63 6.614 4.066 10.91 4.066 3.048 0 7.363-.942 9.661-3.024v3.112h9.192v-38.76h-9.192V39.15Zm27.576-34.257h-9.192v13.68h-6.894v9.12h6.894v29.64h9.192v-29.64h6.894v-9.12h-6.894V4.893Zm35.841 40.851c-2.002 1.785-4.644 2.775-7.544 2.775-6.393 0-11.088-4.658-11.088-11.053 0-6.396 4.546-10.858 11.088-10.858 2.849 0 5.542.942 7.595 2.727l1.394 1.19 6.198-6.147-1.551-1.388c-3.647-3.267-8.489-5.1-13.639-5.1-11.489 0-19.833 8.226-19.833 19.528 0 11.254 8.544 19.774 19.833 19.774 5.247 0 10.139-1.833 13.74-5.153l1.498-1.388-6.294-6.143-1.397 1.236Zm40.451-23.792c-2.647-2.626-5.75-4.063-10.047-4.063-3.047 0-6.498.942-8.796 3.021V.333h-9.192v57h9.192V35.981c0-8.723 6.245-9.416 8.445-9.416 5.494 0 5.342 5.105 5.342 8.178v22.59h9.192V34.791c0-5.404-1.137-9.863-4.136-12.839Z"/><path fill="#FF3D2E" d="M150.016 30.972c1.762 0 3.452.695 4.699 1.931a6.569 6.569 0 0 1 1.946 4.663c0 1.748-.7 3.426-1.946 4.662a6.674 6.674 0 0 1-4.699 1.931 6.675 6.675 0 0 1-4.7-1.93 6.569 6.569 0 0 1-1.946-4.663c0-1.75.7-3.426 1.946-4.663a6.674 6.674 0 0 1 4.7-1.931Z"/><path fill="#fff" d="M40.215 43.017c-3.495 3.568-8.243 5.502-13.239 5.502-10.24 0-17.685-7.98-17.685-18.933 0-11.004 7.446-18.984 17.685-18.984 4.948 0 9.642 1.932 13.19 5.452l1.398 1.388 6.144-6.096-1.349-1.389C41.265 4.752 34.371 1.93 26.976 1.93 11.89 1.93.55 13.824.55 29.634c0 15.761 11.39 27.608 26.426 27.608 7.446 0 14.34-2.873 19.434-8.078l1.349-1.388-6.094-6.195-1.45 1.436Z"/></g><defs><clipPath id="a"><path fill="#fff" d="M.5.333h202v57H.5z"/></clipPath></defs></svg>