<svg xmlns="http://www.w3.org/2000/svg" width="24" height="24" fill="none"><g clip-path="url(#a)"><path fill="#fff" fill-rule="evenodd" stroke="#FB8200" stroke-width=".317" d="m11.926 18.72 7.266 4.382-1.922-8.265 6.413-5.558-8.454-.725L11.926.762 8.623 8.554l-8.455.725 6.414 5.558-1.922 8.265 7.266-4.383Z" clip-rule="evenodd"/><mask id="b" width="26" height="24" x="-1" y="0" maskUnits="userSpaceOnUse" style="mask-type:luminance"><path fill="#fff" fill-rule="evenodd" stroke="#fff" stroke-width=".317" d="m11.926 18.72 7.266 4.382-1.922-8.265 6.413-5.558-8.454-.725L11.926.762 8.623 8.554l-8.455.725 6.414 5.558-1.922 8.265 7.266-4.383Z" clip-rule="evenodd"/></mask><g mask="url(#b)"><path fill="#FB8200" d="M-2.183-.414h14.109v24.691H-2.183z"/></g></g><defs><clipPath id="a"><path fill="#fff" d="M.168.762H23.91v22.475H.17z"/></clipPath></defs></svg>