<svg width="19" height="19" viewBox="0 0 19 19" fill="none" xmlns="http://www.w3.org/2000/svg">
<g id="Icon/Filled/Star">
<path id="Vector" d="M16.2584 6.32095L11.7127 5.66031L9.6806 1.54068C9.6251 1.42788 9.53379 1.33657 9.421 1.28107C9.13812 1.14143 8.79437 1.2578 8.65293 1.54068L6.62087 5.66031L2.07513 6.32095C1.94981 6.33885 1.83523 6.39794 1.7475 6.48745C1.64144 6.59646 1.583 6.74312 1.58501 6.8952C1.58703 7.04727 1.64933 7.19233 1.75824 7.29849L5.04714 10.505L4.27012 15.0329C4.2519 15.1382 4.26356 15.2465 4.30377 15.3456C4.34398 15.4446 4.41113 15.5304 4.49762 15.5932C4.58411 15.656 4.68647 15.6933 4.79309 15.7009C4.89971 15.7086 5.00633 15.6861 5.10085 15.6362L9.16677 13.4985L13.2327 15.6362C13.3437 15.6953 13.4726 15.715 13.5961 15.6935C13.9077 15.6398 14.1171 15.3444 14.0634 15.0329L13.2864 10.505L16.5753 7.29849C16.6648 7.21076 16.7239 7.09618 16.7418 6.97085C16.7901 6.65754 16.5717 6.3675 16.2584 6.32095V6.32095Z" fill="#FB8200"/>
</g>
</svg>
